<svg viewBox="0 0 232 204" fill="none" xmlns="http://www.w3.org/2000/svg">
  <path d="M216.463 0H41.7409C28.1932 0 19.5168 14.3991 25.8552 26.3711L43.3295 59.459H11.6478C5.21432 59.459 0 64.6773 0 71.1091C0 72.998 0.459152 74.8606 1.34052 76.5332L57.5528 182.904C60.5663 188.587 67.6173 190.755 73.3013 187.748C75.3649 186.656 77.0537 184.967 78.1462 182.904L93.4144 154.169L112.567 190.423C119.307 203.176 137.567 203.197 144.333 190.46L231.911 25.701C238.106 14.0509 229.662 0 216.463 0ZM137.979 70.3968L100.217 141.453C98.2118 145.236 93.5147 146.677 89.7306 144.672C88.3584 143.944 87.2396 142.825 86.5113 141.453L49.1138 70.6976C47.1083 66.9144 48.5544 62.2238 52.3385 60.2188C53.452 59.6278 54.687 59.3218 55.9431 59.3165H131.313C135.483 59.3165 138.86 62.6934 138.86 66.8617C138.86 68.0911 138.559 69.3046 137.979 70.3968Z" fill="#F71963"/>
</svg>
