<svg width="512" height="512" viewBox="0 0 512 512" fill="none" xmlns="http://www.w3.org/2000/svg">
<rect width="512" height="512" rx="90" fill="white"/>
<path d="M399.692 112H147.297C127.727 112 115.193 132.735 124.349 149.974L149.592 197.621H103.826C94.5323 197.621 87 205.135 87 214.397C87 217.117 87.6633 219.799 88.9365 222.208L170.138 375.382C174.491 383.565 184.677 386.688 192.888 382.357C195.868 380.784 198.308 378.353 199.886 375.382L221.942 334.004L249.609 386.209C259.345 404.573 285.723 404.603 295.497 386.262L422.007 149.009C430.957 132.233 418.759 112 399.692 112ZM286.318 213.371L231.769 315.693C228.872 321.14 222.087 323.214 216.621 320.327C214.638 319.279 213.022 317.668 211.97 315.693L157.947 213.804C155.05 208.357 157.139 201.602 162.606 198.715C164.214 197.864 165.998 197.423 167.813 197.416H276.689C282.712 197.416 287.591 202.278 287.591 208.281C287.591 210.051 287.156 211.799 286.318 213.371Z" fill="#F71963"/>
</svg>
