<svg width="80" height="67" viewBox="0 0 80 67" fill="none" xmlns="http://www.w3.org/2000/svg">
<g clip-path="url(#clip0_2399_4992)">
<rect x="17.3335" y="19.9999" width="53.3333" height="48" rx="8" transform="rotate(-9.35048 17.3335 19.9999)" fill="#E0E0E0"/>
<rect x="14.3337" y="11.6663" width="51.3333" height="46" rx="7" fill="#0D0D0D" stroke="#0D0D0D" stroke-width="2" stroke-linecap="round"/>
<mask id="mask0_2399_4992" style="mask-type:alpha" maskUnits="userSpaceOnUse" x="22" y="18" width="33" height="33">
<rect x="22.667" y="18.6661" width="32" height="32" fill="#D9D9D9"/>
</mask>
<g mask="url(#mask0_2399_4992)">
<path d="M40.6671 47.3067C38.6226 47.3067 36.8893 46.6059 35.4671 45.2042C34.0449 43.8025 33.3337 42.0942 33.3337 40.0793V26.2815C33.3337 24.836 33.856 23.5986 34.9004 22.5692C35.9449 21.5398 37.2004 21.0251 38.6671 21.0251C40.1337 21.0251 41.3893 21.5398 42.4337 22.5692C43.4782 23.5986 44.0004 24.836 44.0004 26.2815V38.7652C44.0004 39.6851 43.6782 40.4626 43.0337 41.0977C42.3893 41.7328 41.6004 42.0504 40.6671 42.0504C39.7337 42.0504 38.9449 41.7328 38.3004 41.0977C37.656 40.4626 37.3337 39.6851 37.3337 38.7652V26.2815H39.3337V38.7652C39.3337 39.1375 39.4615 39.4496 39.7171 39.7015C39.9726 39.9534 40.2893 40.0793 40.6671 40.0793C41.0449 40.0793 41.3615 39.9534 41.6171 39.7015C41.8726 39.4496 42.0004 39.1375 42.0004 38.7652V26.2815C42.0004 25.3616 41.6782 24.5841 41.0337 23.949C40.3893 23.3138 39.6004 22.9963 38.6671 22.9963C37.7337 22.9963 36.9449 23.3138 36.3004 23.949C35.656 24.5841 35.3337 25.3616 35.3337 26.2815V40.0793C35.3337 41.5248 35.856 42.7622 36.9004 43.7916C37.9449 44.8209 39.2004 45.3356 40.6671 45.3356C42.1337 45.3356 43.3893 44.8209 44.4337 43.7916C45.4782 42.7622 46.0004 41.5248 46.0004 40.0793V26.2815H48.0004V40.0793C48.0004 42.0942 47.2893 43.8025 45.8671 45.2042C44.4449 46.6059 42.7115 47.3067 40.6671 47.3067Z" fill="white"/>
</g>
<mask id="mask1_2399_4992" style="mask-type:alpha" maskUnits="userSpaceOnUse" x="-3" y="-3" width="33" height="33">
<rect x="-2.53711" y="-2.17847" width="32" height="32" fill="#D9D9D9"/>
</mask>
<g mask="url(#mask1_2399_4992)">
<circle cx="14.1337" cy="13.2883" r="12.8" fill="white"/>
<path d="M12.9337 19.6885H15.3337V14.4885H20.5337V12.0885H15.3337V6.88853H12.9337V12.0885H7.73374V14.4885H12.9337V19.6885ZM14.1429 26.0885C12.3813 26.0885 10.7226 25.7552 9.16707 25.0885C7.61152 24.4219 6.25041 23.5052 5.08374 22.3385C3.91707 21.1719 3.00041 19.8112 2.33374 18.2566C1.66707 16.7019 1.33374 15.0408 1.33374 13.2733C1.33374 11.5057 1.66707 9.84964 2.33374 8.30519C3.00041 6.76075 3.91707 5.40519 5.08374 4.23853C6.25041 3.07186 7.61105 2.15519 9.16567 1.48853C10.7203 0.821859 12.3814 0.488525 14.149 0.488525C15.9166 0.488525 17.5726 0.821859 19.1171 1.48853C20.6615 2.15519 22.0171 3.07186 23.1837 4.23853C24.3504 5.40519 25.2671 6.76324 25.9337 8.31266C26.6004 9.8621 26.9337 11.5177 26.9337 13.2793C26.9337 15.041 26.6004 16.6996 25.9337 18.2552C25.2671 19.8107 24.3504 21.1719 23.1837 22.3385C22.0171 23.5052 20.659 24.4219 19.1096 25.0885C17.5602 25.7552 15.9046 26.0885 14.1429 26.0885ZM14.1337 23.6885C17.0226 23.6885 19.4782 22.6774 21.5004 20.6552C23.5226 18.633 24.5337 16.1774 24.5337 13.2885C24.5337 10.3996 23.5226 7.94408 21.5004 5.92186C19.4782 3.89964 17.0226 2.88853 14.1337 2.88853C11.2449 2.88853 8.7893 3.89964 6.76707 5.92186C4.74485 7.94408 3.73374 10.3996 3.73374 13.2885C3.73374 16.1774 4.74485 18.633 6.76707 20.6552C8.7893 22.6774 11.2449 23.6885 14.1337 23.6885Z" fill="#0D0D0D"/>
</g>
</g>
<defs>
<clipPath id="clip0_2399_4992">
<rect width="80" height="66.6667" fill="white"/>
</clipPath>
</defs>
</svg>
