<svg width="60" height="60" viewBox="0 0 60 60" fill="none" xmlns="http://www.w3.org/2000/svg">
<path d="M29.9815 60C25.7706 60 21.8412 59.2339 18.193 57.7018C14.5449 56.1692 11.3667 54.0482 8.65831 51.3387C5.94944 48.6292 3.8293 45.4497 2.29789 41.8003C0.765965 38.1508 0 34.2192 0 30.0055C0 25.8239 0.765701 21.9076 2.2971 18.2566C3.82851 14.6055 5.94812 11.4245 8.65595 8.71342C11.3638 6.00289 14.5412 3.87289 18.1883 2.32342C21.8354 0.774473 25.7646 0 29.9759 0C33.684 0 37.1547 0.596314 40.3879 1.78895C43.6205 2.98105 46.5334 4.62158 49.1266 6.71053L46.5842 9.31579C44.3108 7.47368 41.7765 6.05763 38.9813 5.06763C36.1867 4.07816 33.1849 3.58342 29.9759 3.58342C22.5324 3.58342 16.2722 6.12368 11.1952 11.2042C6.11877 16.2853 3.58055 22.5505 3.58055 30C3.58055 37.4495 6.11877 43.7147 11.1952 48.7958C16.2722 53.8763 22.5324 56.4166 29.9759 56.4166C37.4194 56.4166 43.6797 53.8763 48.7567 48.7958C53.8331 43.7147 56.3713 37.4495 56.3713 30C56.3713 28.4211 56.248 26.8887 56.0014 25.4029C55.7547 23.9171 55.3948 22.4697 54.9214 21.0608L57.6398 18.3095C58.4002 20.1153 58.9758 21.9939 59.3666 23.9455C59.7568 25.8971 59.9519 27.9153 59.9519 30C59.9519 34.2147 59.1783 38.1471 57.6311 41.7971C56.0839 45.4471 53.9567 48.6271 51.2494 51.3371C48.5416 54.0471 45.3646 56.1684 41.7186 57.7011C38.0721 59.2337 34.1597 60 29.9815 60Z" fill="#E0E0E0"/>
<path d="M25.3218 43.3058L13.307 31.2332L15.9772 28.5308L25.3218 37.8829L57.2517 5.92737L60 8.59894L25.3218 43.3058Z" fill="#28BC37"/>
</svg>
