<svg width="60" height="50" viewBox="0 0 60 50" fill="none" xmlns="http://www.w3.org/2000/svg">
<g clip-path="url(#clip0_121_3427)">
<rect x="13" y="15" width="40" height="36" rx="6" transform="rotate(-9.35048 13 15)" fill="#CBE9FF"/>
<rect x="10.75" y="8.75" width="38.5" height="34.5" rx="5.25" fill="white" stroke="black" stroke-width="1.5" stroke-linecap="round"/>
<mask id="mask0_121_3427" style="mask-type:alpha" maskUnits="userSpaceOnUse" x="17" y="14" width="24" height="24">
<rect x="17" y="14" width="24" height="24" fill="#D9D9D9"/>
</mask>
<g mask="url(#mask0_121_3427)">
<path d="M30.5 35.4802C28.9667 35.4802 27.6667 34.9546 26.6 33.9033C25.5333 32.8521 25 31.5708 25 30.0597V19.7113C25 18.6272 25.3917 17.6991 26.175 16.9271C26.9583 16.1551 27.9 15.769 29 15.769C30.1 15.769 31.0417 16.1551 31.825 16.9271C32.6083 17.6991 33 18.6272 33 19.7113V29.0741C33 29.764 32.7583 30.3471 32.275 30.8235C31.7917 31.2998 31.2 31.538 30.5 31.538C29.8 31.538 29.2083 31.2998 28.725 30.8235C28.2417 30.3471 28 29.764 28 29.0741V19.7113H29.5V29.0741C29.5 29.3533 29.5958 29.5874 29.7875 29.7763C29.9792 29.9652 30.2167 30.0597 30.5 30.0597C30.7833 30.0597 31.0208 29.9652 31.2125 29.7763C31.4042 29.5874 31.5 29.3533 31.5 29.0741V19.7113C31.5 19.0214 31.2583 18.4383 30.775 17.9619C30.2917 17.4856 29.7 17.2474 29 17.2474C28.3 17.2474 27.7083 17.4856 27.225 17.9619C26.7417 18.4383 26.5 19.0214 26.5 19.7113V30.0597C26.5 31.1438 26.8917 32.0718 27.675 32.8439C28.4583 33.6159 29.4 34.0019 30.5 34.0019C31.6 34.0019 32.5417 33.6159 33.325 32.8439C34.1083 32.0718 34.5 31.1438 34.5 30.0597V19.7113H36V30.0597C36 31.5708 35.4667 32.8521 34.4 33.9033C33.3333 34.9546 32.0333 35.4802 30.5 35.4802Z" fill="black"/>
</g>
<mask id="mask1_121_3427" style="mask-type:alpha" maskUnits="userSpaceOnUse" x="-2" y="-2" width="25" height="25">
<rect x="-1.90332" y="-1.63379" width="24" height="24" fill="#D9D9D9"/>
</mask>
<g mask="url(#mask1_121_3427)">
<circle cx="10.6" cy="9.96621" r="9.6" fill="white"/>
<path d="M9.7 14.7667H11.5V10.8667H15.4V9.0667H11.5V5.1667H9.7V9.0667H5.8V10.8667H9.7V14.7667ZM10.6069 19.5667C9.28563 19.5667 8.04167 19.3167 6.875 18.8167C5.70833 18.3167 4.6875 17.6292 3.8125 16.7542C2.9375 15.8792 2.25 14.8587 1.75 13.6927C1.25 12.5268 1 11.2809 1 9.95525C1 8.62955 1.25 7.38753 1.75 6.2292C2.25 5.07087 2.9375 4.0542 3.8125 3.1792C4.6875 2.3042 5.70798 1.6167 6.87395 1.1167C8.03993 0.616699 9.28577 0.366699 10.6115 0.366699C11.9372 0.366699 13.1792 0.616699 14.3375 1.1167C15.4958 1.6167 16.5125 2.3042 17.3875 3.1792C18.2625 4.0542 18.95 5.07273 19.45 6.2348C19.95 7.39688 20.2 8.63855 20.2 9.9598C20.2 11.2811 19.95 12.525 19.45 13.6917C18.95 14.8584 18.2625 15.8792 17.3875 16.7542C16.5125 17.6292 15.494 18.3167 14.3319 18.8167C13.1698 19.3167 11.9282 19.5667 10.6069 19.5667ZM10.6 17.7667C12.7667 17.7667 14.6083 17.0084 16.125 15.4917C17.6417 13.975 18.4 12.1334 18.4 9.9667C18.4 7.80003 17.6417 5.95837 16.125 4.4417C14.6083 2.92503 12.7667 2.1667 10.6 2.1667C8.43333 2.1667 6.59167 2.92503 5.075 4.4417C3.55833 5.95837 2.8 7.80003 2.8 9.9667C2.8 12.1334 3.55833 13.975 5.075 15.4917C6.59167 17.0084 8.43333 17.7667 10.6 17.7667Z" fill="#0366DD"/>
</g>
</g>
<defs>
<clipPath id="clip0_121_3427">
<rect width="60" height="50" fill="white"/>
</clipPath>
</defs>
</svg>
