<svg width="32" height="32" viewBox="0 0 32 32" fill="none" xmlns="http://www.w3.org/2000/svg">
<path d="M19.9671 8.90485H12.0352V23.0976H19.9671V8.90485Z" fill="#EB611D"/>
<path d="M12.5386 16.0001C12.5386 13.1216 13.8924 10.5561 16.0001 8.90479C14.4589 7.69535 12.5125 6.97443 10.3989 6.97443C5.39175 6.97443 1.33398 11.0158 1.33398 16.0001C1.33398 20.9851 5.39175 25.0257 10.3989 25.0257C12.5133 25.0257 14.4596 24.3048 16.0008 23.0968C13.8924 21.4433 12.5386 18.8808 12.5386 16.0001Z" fill="#E41322"/>
<path d="M30.6676 16.0001C30.6676 20.9851 26.6098 25.0257 21.6019 25.0257C19.4883 25.0257 17.5419 24.3048 16 23.0968C18.1092 21.4426 19.463 18.8801 19.463 16.0001C19.463 13.1216 18.1092 10.5561 16 8.90479C17.5427 7.69535 19.4883 6.97443 21.6027 6.97443C26.6106 6.97443 30.6676 11.0158 30.6676 16.0001Z" fill="#F59E21"/>
</svg>
