<svg width="32" height="32" viewBox="0 0 32 32" fill="none" xmlns="http://www.w3.org/2000/svg">
<path d="M13.8733 21.1542H11.2629L12.8941 10.8513H15.5044L13.8733 21.1542Z" fill="#0066B3"/>
<path d="M9.06521 10.8513L6.57556 17.9376L6.28045 16.4107L5.40317 11.7802C5.40317 11.7802 5.29586 10.8513 4.16372 10.8513H0.0482905L0 11.025C0 11.025 1.25824 11.2951 2.7311 12.2019L5.00075 21.1542H7.72112L11.8741 10.8513H9.06521Z" fill="#0066B3"/>
<path d="M29.6016 21.1542H32L29.9101 10.8513H27.8094C26.8409 10.8513 26.6049 11.6203 26.6049 11.6203L22.7121 21.1569H25.4325L25.9771 19.6272H29.2957L29.6016 21.1542ZM26.7283 17.5104L28.0992 13.6544L28.8718 17.5104H26.7283Z" fill="#0066B3"/>
<path d="M22.9166 13.3292L23.2895 11.1159C23.2895 11.1159 22.1385 10.6667 20.942 10.6667C19.6462 10.6667 16.569 11.2482 16.569 14.0789C16.569 16.7414 20.1801 16.7745 20.1801 18.1719C20.1801 19.5693 16.9419 19.3213 15.8715 18.4393L15.4825 20.7518C15.4825 20.7518 16.6495 21.3333 18.4309 21.3333C20.2123 21.3333 22.9005 20.3852 22.9005 17.8053C22.9005 15.1263 19.2572 14.8782 19.2572 13.7123C19.2545 12.5464 21.7978 12.6953 22.9166 13.3292Z" fill="#0066B3"/>
</svg>
