<svg width="32" height="32" viewBox="0 0 32 32" fill="none" xmlns="http://www.w3.org/2000/svg">
<path d="M14.2764 27.4623C20.4211 27.4623 25.4023 22.4202 25.4023 16.2006C25.4023 9.98086 20.4211 4.9388 14.2764 4.9388C8.13166 4.9388 3.15039 9.98086 3.15039 16.2006C3.15039 22.4202 8.13166 27.4623 14.2764 27.4623Z" fill="white"/>
<path d="M14.2928 27.6667C7.91531 27.6958 2.66602 22.4698 2.66602 16.102C2.66602 9.14565 7.91531 4.33333 14.2928 4.33333H17.28C23.5826 4.33333 29.3327 9.13982 29.3327 16.102C29.3327 22.464 23.5826 27.6667 17.28 27.6667H14.2928ZM14.3158 5.30045C8.48514 5.30045 3.76538 10.0836 3.76538 15.9796C3.76538 21.8756 8.48514 26.6588 14.3158 26.6588C20.1464 26.6588 24.8662 21.8756 24.8662 15.9796C24.8662 10.0836 20.1464 5.30045 14.3158 5.30045ZM11.9214 22.295V9.66416C9.41182 10.6429 7.63328 13.0957 7.62752 15.9796C7.63328 18.8635 9.41758 21.3221 11.9214 22.295ZM21.004 15.9796C20.9983 13.0957 19.2197 10.6371 16.7102 9.65834V22.295C19.2197 21.3221 21.004 18.8635 21.004 15.9796Z" fill="#004A98"/>
</svg>
